<svg xmlns="http://www.w3.org/2000/svg" xmlns:xlink="http://www.w3.org/1999/xlink" viewBox="322.98 217 54.03 84">
<path fill="#e34647" d="M372.5 247a4.6 4.6 0 01-3.2-1.3L350 227.3l-19.3 18.4a4.6 4.6 0 01-6.4 0 4.1 4.1 0 010-6l22.5-21.4a4.6 4.6 0 016.4 0l22.5 21.4a4.1 4.1 0 010 6 4.6 4.6 0 01-3.2 1.3Z"/>
<path fill="#e34647" d="M372.5 274a4.6 4.6 0 01-3.2-1.3L350 254.3l-19.3 18.4a4.6 4.6 0 01-6.4 0 4.1 4.1 0 010-6l22.5-21.4a4.6 4.6 0 016.4 0l22.5 21.4a4.1 4.1 0 010 6 4.6 4.6 0 01-3.2 1.3Z"/>
<path fill="#e34647" d="M372.5 301a4.6 4.6 0 01-3.2-1.3L350 281.3l-19.3 18.4a4.6 4.6 0 01-6.4 0 4.1 4.1 0 010-6l22.5-21.4a4.6 4.6 0 016.4 0l22.5 21.4a4.1 4.1 0 010 6 4.6 4.6 0 01-3.2 1.3Z"/>
</svg>