<svg xmlns="http://www.w3.org/2000/svg" xmlns:xlink="http://www.w3.org/1999/xlink" viewBox="322.98 217 54.03 84">
<path fill="#2a81bf" d="M372.5 271a4.6 4.6 0 00-3.2 1.3L350 290.7l-19.3-18.4a4.6 4.6 0 00-6.4 0 4.1 4.1 0 000 6l22.5 21.4a4.6 4.6 0 006.4 0l22.5-21.4a4.1 4.1 0 000-6 4.6 4.6 0 00-3.2-1.3Z"/>
<path fill="#2a81bf" d="M372.5 244a4.6 4.6 0 00-3.2 1.3L350 263.7l-19.3-18.4a4.6 4.6 0 00-6.4 0 4.1 4.1 0 000 6l22.5 21.4a4.6 4.6 0 006.4 0l22.5-21.4a4.1 4.1 0 000-6 4.6 4.6 0 00-3.2-1.3Z"/>
<path fill="#2a81bf" d="M372.5 217a4.6 4.6 0 00-3.2 1.3L350 236.7l-19.3-18.4a4.6 4.6 0 00-6.4 0 4.1 4.1 0 000 6l22.5 21.4a4.6 4.6 0 006.4 0l22.5-21.4a4.1 4.1 0 000-6 4.6 4.6 0 00-3.2-1.3Z"/>
</svg>